<?xml version="1.0" encoding="UTF-8" standalone="no"?><svg xmlns="http://www.w3.org/2000/svg" xmlns:xlink="http://www.w3.org/1999/xlink" contentStyleType="text/css" height="207px" preserveAspectRatio="none" style="width:584px;height:207px;background:#FFFFFF;" version="1.1" viewBox="0 0 584 207" width="584px" zoomAndPan="magnify"><defs/><g><ellipse cx="241" cy="20" fill="#222222" rx="10" ry="10" style="stroke:#222222;stroke-width:1.0;"/><polygon fill="#F1F1F1" points="199,50,283,50,295,62.9551,283,75.9102,199,75.9102,187,62.9551,199,50" style="stroke:#181818;stroke-width:0.5;"/><text fill="#000000" font-family="sans-serif" font-size="11" lengthAdjust="spacing" textLength="35" x="199" y="60.6348">Много</text><text fill="#000000" font-family="sans-serif" font-size="11" lengthAdjust="spacing" textLength="84" x="199" y="73.5898">бизнес логики?</text><text fill="#000000" font-family="sans-serif" font-size="11" lengthAdjust="spacing" textLength="13" x="174" y="60.6348">да</text><text fill="#000000" font-family="sans-serif" font-size="11" lengthAdjust="spacing" textLength="18" x="295" y="60.6348">нет</text><rect fill="#98FB98" height="76.5313" rx="12.5" ry="12.5" style="stroke:#181818;stroke-width:0.5;" width="171" x="11" y="85.9102"/><text fill="#000000" font-family="sans-serif" font-size="12" lengthAdjust="spacing" textLength="111" x="21" y="107.5117">Rich Domain Model</text><text fill="#000000" font-family="sans-serif" font-size="12" lengthAdjust="spacing" textLength="105" x="21" y="121.6445">Clean Architecture</text><text fill="#000000" font-family="sans-serif" font-size="12" lengthAdjust="spacing" text-decoration="underline" textLength="27" x="21" y="135.7773">ORM</text><text fill="#000000" font-family="sans-serif" font-size="12" lengthAdjust="spacing" textLength="55" x="52" y="135.7773">или JDBC</text><text fill="#000000" font-family="sans-serif" font-size="12" lengthAdjust="spacing" textLength="151" x="21" y="149.9102">Пирамида тестирования</text><polygon fill="#F1F1F1" points="308.5,85.9102,462.5,85.9102,474.5,97.9102,462.5,109.9102,308.5,109.9102,296.5,97.9102,308.5,85.9102" style="stroke:#181818;stroke-width:0.5;"/><text fill="#000000" font-family="sans-serif" font-size="11" lengthAdjust="spacing" textLength="154" x="308.5" y="102.0674">Сложные структуры данных</text><text fill="#000000" font-family="sans-serif" font-size="11" lengthAdjust="spacing" textLength="13" x="283.5" y="95.5898">да</text><text fill="#000000" font-family="sans-serif" font-size="11" lengthAdjust="spacing" textLength="18" x="474.5" y="95.5898">нет</text><rect fill="#98FB98" height="76.5313" rx="12.5" ry="12.5" style="stroke:#181818;stroke-width:0.5;" width="149" x="212" y="119.9102"/><text fill="#000000" font-family="sans-serif" font-size="12" lengthAdjust="spacing" textLength="129" x="222" y="141.5117">Anemic Domain Model</text><text fill="#000000" font-family="sans-serif" font-size="12" lengthAdjust="spacing" textLength="119" x="222" y="155.6445">Layered Architecture</text><text fill="#000000" font-family="sans-serif" font-size="12" lengthAdjust="spacing" text-decoration="underline" textLength="28" x="222" y="169.7773">JDBC</text><text fill="#000000" font-family="sans-serif" font-size="12" lengthAdjust="spacing" textLength="54" x="254" y="169.7773">или ORM</text><text fill="#000000" font-family="sans-serif" font-size="12" lengthAdjust="spacing" textLength="117" x="222" y="183.9102">Ромб тестирования</text><rect fill="#98FB98" height="76.5313" rx="12.5" ry="12.5" style="stroke:#181818;stroke-width:0.5;" width="177" x="396" y="119.9102"/><text fill="#000000" font-family="sans-serif" font-size="12" lengthAdjust="spacing" textLength="129" x="406" y="141.5117">Anemic Domain Model</text><text fill="#000000" font-family="sans-serif" font-size="12" lengthAdjust="spacing" textLength="127" x="406" y="155.6445">CLayered Architecture</text><text fill="#000000" font-family="sans-serif" font-size="12" lengthAdjust="spacing" textLength="28" x="406" y="169.7773">JDBC</text><text fill="#000000" font-family="sans-serif" font-size="12" lengthAdjust="spacing" textLength="157" x="406" y="183.9102">Мороженое тестирования</text><line style="stroke:#181818;stroke-width:1.0;" x1="296.5" x2="286.5" y1="97.9102" y2="97.9102"/><line style="stroke:#181818;stroke-width:1.0;" x1="286.5" x2="286.5" y1="97.9102" y2="119.9102"/><polygon fill="#181818" points="282.5,109.9102,286.5,119.9102,290.5,109.9102,286.5,113.9102" style="stroke:#181818;stroke-width:1.0;"/><line style="stroke:#181818;stroke-width:1.0;" x1="474.5" x2="484.5" y1="97.9102" y2="97.9102"/><line style="stroke:#181818;stroke-width:1.0;" x1="484.5" x2="484.5" y1="97.9102" y2="119.9102"/><polygon fill="#181818" points="480.5,109.9102,484.5,119.9102,488.5,109.9102,484.5,113.9102" style="stroke:#181818;stroke-width:1.0;"/><line style="stroke:#181818;stroke-width:1.0;" x1="187" x2="96.5" y1="62.9551" y2="62.9551"/><line style="stroke:#181818;stroke-width:1.0;" x1="96.5" x2="96.5" y1="62.9551" y2="85.9102"/><polygon fill="#181818" points="92.5,75.9102,96.5,85.9102,100.5,75.9102,96.5,79.9102" style="stroke:#181818;stroke-width:1.0;"/><line style="stroke:#181818;stroke-width:1.0;" x1="295" x2="385.5" y1="62.9551" y2="62.9551"/><line style="stroke:#181818;stroke-width:1.0;" x1="385.5" x2="385.5" y1="62.9551" y2="85.9102"/><polygon fill="#181818" points="381.5,75.9102,385.5,85.9102,389.5,75.9102,385.5,79.9102" style="stroke:#181818;stroke-width:1.0;"/><line style="stroke:#181818;stroke-width:1.0;" x1="241" x2="241" y1="30" y2="50"/><polygon fill="#181818" points="237,40,241,50,245,40,241,44" style="stroke:#181818;stroke-width:1.0;"/><!--MD5=[e19754d3f8b183b3bfedbb09c45f0c3f]
@startuml
start
if (Много \nбизнес логики?) then (да)
  #palegreen:Rich Domain Model\nClean Architecture\n__ORM__ или JDBC\nПирамида тестирования;
  kill;
else (нет)
  if (Сложные структуры данных) then (да)
    #palegreen:Anemic Domain Model\nLayered Architecture\n__JDBC__ или ORM\nРомб тестирования;
    kill;
  else (нет)
    #palegreen:Anemic Domain Model\nCLayered Architecture\nJDBC\nМороженое тестирования;
    kill;
  endif
endif
@enduml

PlantUML version 1.2022.5(Sat Apr 30 13:55:52 MSK 2022)
(GPL source distribution)
Java Runtime: OpenJDK Runtime Environment
JVM: OpenJDK 64-Bit Server VM
Default Encoding: UTF-8
Language: ru
Country: RU
--></g></svg>